# xmcd
#
# Track frame offsets:
#	150
#	11432
#	25305
#	40955
#	54295
#	66367
#	78740
#	93052
#	105105
#	118467
#
# Disc length: 1756
#
# Revision: 3
# Processed by: cddbd v1.5.1PL0 Copyright (c) Steve Scherf et al.
# Submitted via: CDValet v3.31 - Copyright (c) 1997 Greg Leichner
# Normalized: r1:TDELIM( - ),TSWAP
#
DISCID=7706da0a
DTITLE=Glen Campbell - Conway Twitty - Back To Back Hits
DYEAR=1900
DGENRE=
TTITLE0=Conway Twitty - Hello Darlin'
TTITLE1=Glen Campbell - Wichita Lineman
TTITLE2=Conway Twitty - Touch The Hand
TTITLE3=Glen Campbell - Gentle On My Mind
TTITLE4=Conway Twitty - She Needs Somone To Hold Her
TTITLE5=Glen Campbell - By The Time I Get To Phoenix
TTITLE6=Conway Twitty - You've Never Been This Far Before
TTITLE7=Glen Campbell - Galveston
TTITLE8=Conway Twitty - After All The Good Is Gone
TTITLE9=Glen Campbell - Southern Lights
EXTD=
EXTT0=
EXTT1=
EXTT2=
EXTT3=
EXTT4=
EXTT5=
EXTT6=
EXTT7=
EXTT8=
EXTT9=
PLAYORDER=
